<?xml version="1.0" encoding="utf-8"?>
<!-- Generator: Adobe Illustrator 24.0.1, SVG Export Plug-In . SVG Version: 6.00 Build 0)  -->
<svg version="1.1" id="Layer_1" xmlns="http://www.w3.org/2000/svg" xmlns:xlink="http://www.w3.org/1999/xlink" x="0px" y="0px"
	 viewBox="0 0 64 64" style="enable-background:new 0 0 64 64;" xml:space="preserve">
<style type="text/css">
	.st0{fill:#FDC811;}
	.st1{fill:#FFFFFF;}
</style>
<g>
	<circle class="st0" cx="32" cy="32" r="32"/>
	<g>
		<polygon points="34,54 34,54 34,54 34,54 34,54 34,54 34,54 34,54 34,54 		"/>
		<path d="M43.6,25.1c-0.2,0-0.4,0-0.5,0.1l-1.9,0.9c0.5-1.1,0.8-2.2,0.8-3.5c0-4.9-4.5-8.9-10-8.9c-5.5,0-10,4-10,8.9
			c0,1.2,0.3,2.4,0.8,3.4l-1.9-0.9c-0.2-0.1-0.4-0.1-0.5-0.1c-0.5,0-1,0.3-1.2,0.7c-0.3,0.6,0,1.4,0.6,1.7l5.8,2.8
			c0,0,1.4-3.1,6.4-3.1c5.1,0,6.4,3.1,6.4,3.1l5.8-2.8c0.6-0.3,0.9-1.1,0.6-1.7C44.6,25.4,44.1,25.1,43.6,25.1z"/>
		<polygon points="32,37.7 32,37.7 32,37.7 		"/>
		<g>
			<g>
				<path d="M44.7,24l3.1-3.1c0.4-0.4,1-0.5,1.4-0.2l0,0c0.1,0.1,0.2,0.2,0.4,0.3c0.5,0.5,0.5,1.3,0,1.8l-3.2,3.1
					c-0.2-0.7-0.7-1.3-1.4-1.6C44.9,24.1,44.8,24.1,44.7,24z"/>
				<path d="M56.4,19.2L56.4,19.2c0.4,0.2,0.6,0.5,0.7,0.9c0.1,0.7-0.3,1.3-1,1.5l-5.1,1.2c0.3-0.8,0.2-1.8-0.4-2.5l4.9-1.2
					C55.9,19,56.2,19.1,56.4,19.2z"/>
			</g>
			<path d="M45.1,30c0.1,0,0.2,0,0.3,0c0.6,0,1.1,0.3,1.3,0.9c0.2,0.7-0.2,1.4-0.8,1.6l-7.1,2.1c-0.1-0.8-0.3-1.6-0.7-2.4L45.1,30z"
				/>
			<g>
				<path d="M47.5,32.5l5.8,1c0.5,0.1,0.9-0.1,1.2-0.4c0.1-0.2,0.2-0.4,0.3-0.6c0.1-0.7-0.3-1.3-1-1.5l-5.6-1
					C48.3,30.9,48.1,31.9,47.5,32.5z"/>
				<path d="M55.1,30.3c0.5,0.4,0.8,0.9,0.9,1.5l4.1-3.6c0.1-0.1,0.1-0.1,0.2-0.2c0.4-0.5,0.4-1.1,0-1.6c-0.5-0.5-1.3-0.6-1.8-0.1
					l-4.1,3.6C54.6,30,54.9,30.1,55.1,30.3C55.1,30.3,55.1,30.3,55.1,30.3z"/>
			</g>
			<g>
				<path d="M51.9,43.7l-2.3-6.4c-0.5,0.8-1.4,1.1-2.3,1.1l2.2,6.2c0.2,0.6,1,1,1.6,0.7c0.2-0.1,0.4-0.2,0.5-0.4
					C51.9,44.7,52,44.2,51.9,43.7z"/>
				<path d="M49,46.1c-0.2-0.2-0.4-0.4-0.5-0.6l-4.9,7.9c-0.4,0.6-0.2,1.4,0.4,1.7c0.5,0.3,1.2,0.2,1.6-0.2c0.1-0.1,0.1-0.1,0.1-0.2
					l4.9-7.9C50.1,46.7,49.5,46.5,49,46.1L49,46.1z"/>
			</g>
		</g>
		<g>
			<g>
				<path d="M19.3,24l-3.1-3.1c-0.4-0.4-1-0.5-1.4-0.2l0,0c-0.1,0.1-0.2,0.2-0.4,0.3c-0.5,0.5-0.5,1.3,0,1.8l3.2,3.1
					c0.2-0.7,0.7-1.3,1.4-1.6C19.1,24.1,19.2,24.1,19.3,24z"/>
				<path d="M7.6,19.2L7.6,19.2c-0.4,0.2-0.6,0.5-0.7,0.9c-0.1,0.7,0.3,1.3,1,1.5l5.1,1.2c-0.3-0.8-0.2-1.8,0.4-2.5l-4.9-1.2
					C8.1,19,7.8,19.1,7.6,19.2z"/>
			</g>
			<path d="M18.9,30c-0.1,0-0.2,0-0.3,0c-0.6,0-1.1,0.3-1.3,0.9c-0.2,0.7,0.2,1.4,0.8,1.6l7.1,2.1c0.1-0.8,0.3-1.6,0.7-2.4L18.9,30z
				"/>
			<g>
				<path d="M16.5,32.5l-5.8,1c-0.5,0.1-0.9-0.1-1.2-0.4c-0.1-0.2-0.2-0.4-0.3-0.6c-0.1-0.7,0.3-1.3,1-1.5l5.6-1
					C15.7,30.9,15.9,31.9,16.5,32.5z"/>
				<path d="M8.9,30.3c-0.5,0.4-0.8,0.9-0.9,1.5l-4.1-3.6c-0.1-0.1-0.1-0.1-0.2-0.2c-0.4-0.5-0.4-1.1,0-1.6c0.5-0.5,1.3-0.6,1.8-0.1
					l4.1,3.6C9.4,30,9.1,30.1,8.9,30.3C8.9,30.3,8.9,30.3,8.9,30.3z"/>
			</g>
			<g>
				<path d="M12.1,43.7l2.3-6.4c0.5,0.8,1.4,1.1,2.3,1.1l-2.2,6.2c-0.2,0.6-1,1-1.6,0.7c-0.2-0.1-0.4-0.2-0.5-0.4
					C12.1,44.7,12,44.2,12.1,43.7z"/>
				<path d="M15,46.1c0.2-0.2,0.4-0.4,0.5-0.6l4.9,7.9c0.4,0.6,0.2,1.4-0.4,1.7c-0.5,0.3-1.2,0.2-1.6-0.2c-0.1-0.1-0.1-0.1-0.1-0.2
					l-4.9-7.9C13.9,46.7,14.5,46.5,15,46.1L15,46.1z"/>
			</g>
		</g>
		<path d="M48.5,35.6c-0.1-0.6-0.6-1-1.2-1c-0.1,0-0.2,0-0.3,0l-6.5,1.3c0,0-6.2,1.5-8.5,6.5c-2.3-5.2-8.5-6.5-8.5-6.5L17,34.6
			c-0.1,0-0.2,0-0.3,0c-0.6,0-1.1,0.4-1.2,1c-0.1,0.7,0.3,1.3,1,1.5l5.7,1.2c-0.2,0.6-0.3,1.3-0.3,2.1c0,9.4,4.8,15.3,9.6,16.6
			c0,0,0.3,0.2,0.5,0.1c0.2,0,0.5-0.1,0.5-0.1c4.8-1.3,9.6-7.1,9.6-16.6c0-0.8-0.1-1.5-0.3-2.1l5.7-1.2
			C48.2,36.9,48.6,36.3,48.5,35.6z"/>
		<path d="M32,29c-6.5,0-6.9,5.4-6.9,5.4c2.4,0.6,5.4,1.9,6.9,4.2c1.5-2.3,4.6-3.5,6.9-4.2C38.9,34.5,38.5,29,32,29z"/>
		<g>
			<path class="st1" d="M37.1,21.8c-1.4,0-2.6-1.3-2.6-2.8c0-0.7,0.3-1.4,0.7-1.9c-1-0.4-2-0.6-3.2-0.6c-1.1,0-2.2,0.2-3.2,0.6
				c0.4,0.5,0.7,1.2,0.7,1.9c0,1.6-1.2,2.8-2.6,2.8c-0.8,0-1.4-0.3-1.9-0.9c-0.2,0.6-0.3,1.2-0.3,1.8c0,0.8,0.2,1.6,0.5,2.3l0.6,1.3
				c1.4-1,3.5-1.7,6.2-1.7c2.7,0,4.8,0.8,6.2,1.7l0.6-1.3c0.4-0.7,0.5-1.5,0.5-2.3c0-0.6-0.1-1.2-0.3-1.8
				C38.6,21.4,37.9,21.8,37.1,21.8z"/>
			<path class="st1" d="M32,54.3c-3.8-1.1-7.5-6.2-7.5-14c0-0.5,0.1-0.9,0.2-1.3l0,0c1.6,0.7,3.9,2,4.9,4.4l2.3,5.4l2.5-5.3
				c1-2.3,3.3-3.6,5-4.4c0.1,0.4,0.2,0.8,0.2,1.3C39.5,48.2,35.8,53.3,32,54.3z"/>
		</g>
		<g>
			<g>
				<path d="M27.8,17.1c-0.1,0-0.2,0-0.3,0c-0.6-0.1-1-0.8-0.9-1.4c0.6-2.4-0.7-3.7-1.8-4.2C22,10,17,10.9,13.5,14.9
					c-0.4,0.5-1.1,0.5-1.6,0.1c-0.5-0.4-0.5-1.1-0.1-1.6c4.4-5,10.6-5.8,14.2-3.9c2.6,1.3,3.7,3.9,3,6.8
					C28.8,16.8,28.3,17.1,27.8,17.1z"/>
			</g>
			<g>
				<path d="M36,17.1c0.1,0,0.2,0,0.3,0c0.6-0.1,1-0.8,0.9-1.4c-0.6-2.4,0.7-3.7,1.8-4.2c2.8-1.5,7.9-0.6,11.4,3.4
					c0.4,0.5,1.1,0.5,1.6,0.1c0.5-0.4,0.5-1.1,0.1-1.6c-4.4-5-10.6-5.8-14.2-3.9c-2.6,1.3-3.7,3.9-3,6.8C35,16.8,35.4,17.1,36,17.1z
					"/>
			</g>
		</g>
	</g>
</g>
</svg>
